# xmcd
#
# Track frame offsets:
#	150
#	15303
#	27665
#	47147
#	65491
#	78093
#	86769
#	100413
#	114191
#	135018
#	145038
#	158026
#	169631
#	179971
#	194936
#
# Disc length: 2843 seconds
#
# Revision: 1
# Processed by: cddbd v1.5.2PL0 Copyright (c) Steve Scherf et al.
# Submitted via: audiograbber 1.83.01
#
DISCID=c50b190f
DTITLE=Glory Train - Gospel Variety
DYEAR=1999
DGENRE=Gospel
TTITLE0=My Sherpard - Rick Loyd
TTITLE1=Let Your Light Shine - Dennis Money
TTITLE2=Flight Of The Mercy Train - Robert Sheilds
TTITLE3=Sorry I Never Knew You - Stan Hitchcock
TTITLE4=What Was That You Say, Lord, - The Lawsons
TTITLE5=Give It Up - Georg Mick
TTITLE6=I´m Coming Back To Church - Danny Ball
TTITLE7=How Can I Sing For Jesus - Red Johson
TTITLE8=Holy Ghost Power Coming Down - Dianne Coburn
TTITLE9=People Get Ready - The Hamiltons
TTITLE10=Nail Scarred Hands - Canaalanders
TTITLE11=Long Gone - Ray Owens
TTITLE12=Back Down Devil - The Good Sheperds
TTITLE13=Merry Christmas To The Savior - Dianne Coburn
TTITLE14=That Christmas Star Song - Danny Ball
EXTD=
EXTT0=
EXTT1=
EXTT2=
EXTT3=
EXTT4=
EXTT5=
EXTT6=
EXTT7=
EXTT8=
EXTT9=
EXTT10=
EXTT11=
EXTT12=
EXTT13=
EXTT14=
PLAYORDER=
